<?xml version="1.0" standalone="no"?>
<!DOCTYPE svg PUBLIC "-//W3C//DTD SVG 20010904//EN"
 "http://www.w3.org/TR/2001/REC-SVG-20010904/DTD/svg10.dtd">
<svg version="1.0" xmlns="http://www.w3.org/2000/svg"
 width="1200.000000pt" height="560.000000pt" viewBox="0 0 1200.000000 560.000000"
 preserveAspectRatio="xMidYMid meet">
<metadata>
Created by potrace 1.16, written by Peter Selinger 2001-2019
</metadata>
<g transform="translate(0.000000,560.000000) scale(0.100000,-0.100000)"
fill="#000000" stroke="none">
<path d="M10035 5549 c-1143 -9 -1589 -20 -1645 -40 -55 -19 -88 -47 -137
-113 l-45 -61 6 -1615 c5 -1547 12 -1931 36 -2011 15 -52 45 -86 103 -117 l52
-27 1690 0 c1527 0 1693 2 1725 16 52 24 101 69 117 108 29 68 34 457 30 2041
-4 1669 -3 1640 -54 1707 -10 15 -60 48 -109 75 l-89 48 -315 -2 c-173 -1
-787 -5 -1365 -9z m1686 -206 c34 -15 39 -28 50 -153 14 -155 23 -2465 11
-2945 -11 -468 -12 -478 -79 -492 -56 -12 -3059 -7 -3167 5 -54 6 -94 16 -103
25 -13 13 -17 78 -25 394 -11 445 -3 3014 10 3091 5 29 14 58 20 64 6 6 44 15
84 19 40 3 771 6 1623 5 1162 -1 1557 -4 1576 -13z"/>
<path d="M9074 4535 c-123 -22 -156 -51 -195 -168 -20 -62 -29 -74 -114 -152
-139 -127 -161 -187 -197 -533 -18 -177 -22 -278 -23 -547 l0 -330 28 -57 c52
-107 161 -178 282 -186 153 -10 231 59 389 345 37 67 75 132 85 144 l17 22 55
-36 c103 -68 233 -75 351 -20 75 36 105 63 153 137 l36 56 157 0 158 0 21 -37
c65 -115 166 -180 294 -190 89 -6 135 5 213 52 32 19 60 35 62 35 7 0 63 -89
104 -165 110 -204 196 -306 286 -335 54 -18 150 -8 215 22 73 33 128 84 165
150 l29 53 -1 365 c-1 301 -5 398 -22 550 -36 316 -57 369 -202 510 -83 81
-98 101 -103 135 -9 60 -58 130 -108 156 -47 23 -214 40 -281 28 -81 -14 -147
-93 -178 -212 l-18 -72 -636 -3 -636 -2 -6 27 c-19 84 -28 112 -49 149 -36 61
-86 100 -145 113 -63 13 -95 13 -186 -4z m2105 -362 c29 -30 33 -40 28 -73 -2
-20 -12 -49 -22 -64 -20 -30 -81 -52 -120 -42 -61 15 -100 98 -71 153 41 81
122 92 185 26z m-1989 -83 c0 -69 -1 -72 -41 -115 -23 -25 -47 -45 -54 -45 -7
0 -31 20 -54 45 -39 42 -41 48 -41 108 0 35 3 67 7 70 3 4 46 7 95 7 l88 0 0
-70z m-204 -148 c52 -42 61 -65 35 -98 -35 -45 -55 -53 -127 -56 l-69 -3 -3
84 c-4 116 -4 115 70 107 44 -5 70 -15 94 -34z m384 -68 l0 -95 -76 2 c-73 2
-78 3 -108 36 -52 58 -52 60 -3 109 44 44 45 44 116 44 l71 0 0 -96z m1508 80
c29 -20 52 -65 52 -102 0 -20 -11 -41 -35 -65 -30 -31 -43 -37 -76 -37 -25 0
-52 8 -70 20 -55 40 -57 137 -2 180 31 24 99 27 131 4z m558 1 c37 -25 56 -79
44 -123 -14 -53 -40 -74 -100 -80 -43 -4 -55 -1 -75 18 -79 74 -36 200 69 200
23 0 51 -7 62 -15z m-1640 -45 l74 0 0 -50 0 -50 -80 -1 c-44 -1 -86 -2 -92
-3 -8 -1 -14 15 -16 43 -4 54 3 75 24 67 9 -3 49 -6 90 -6z m-646 -139 l41
-39 -3 -68 -3 -69 -92 -3 -93 -3 0 70 c0 67 2 73 36 111 20 22 45 40 55 40 10
0 37 -18 59 -39z m1999 -56 c37 -19 65 -77 57 -119 -12 -65 -90 -107 -151 -81
-62 25 -88 96 -58 155 29 57 93 76 152 45z m-1463 -213 c143 -73 160 -280 31
-373 -98 -71 -213 -56 -298 38 -79 87 -75 208 10 292 25 26 62 52 81 58 47 16
129 9 176 -15z m1002 7 c25 -12 60 -43 83 -71 37 -47 39 -53 39 -121 0 -120
-55 -196 -163 -224 -135 -35 -271 74 -271 217 0 158 171 267 312 199z"/>
<path d="M1830 5529 l-1695 -6 -53 -59 c-30 -33 -60 -73 -68 -91 -12 -27 -14
-308 -14 -1841 l0 -1808 29 -45 c36 -56 66 -83 116 -106 36 -16 95 -18 655
-24 338 -3 1095 -3 1681 1 l1067 7 38 24 c22 13 63 45 91 72 l53 49 0 1677 c0
922 -3 1750 -6 1841 l-7 165 -57 55 c-32 30 -75 64 -96 75 -39 20 -47 20
-1734 14z m793 -188 l868 -8 22 -22 22 -22 3 -1652 c2 -1001 0 -1693 -6 -1756
-7 -79 -14 -107 -27 -117 -9 -7 -56 -16 -103 -20 -48 -5 -781 -9 -1629 -9
-1536 0 -1543 0 -1563 20 -44 44 -45 89 -45 1830 1 1759 -1 1682 51 1745 l25
29 757 -5 c416 -3 1148 -9 1625 -13z"/>
<path d="M2545 4949 c-191 -23 -639 -217 -900 -390 -305 -202 -618 -496 -795
-747 -136 -193 -317 -525 -327 -601 -11 -82 57 -155 144 -153 71 1 98 29 188
203 93 177 214 364 316 487 106 127 330 346 444 433 279 213 593 376 876 454
141 39 173 53 203 84 70 73 27 206 -74 233 -8 2 -42 1 -75 -3z"/>
<path d="M2495 4491 c-192 -66 -231 -83 -377 -156 -510 -256 -877 -627 -1160
-1172 -38 -75 -66 -139 -61 -143 9 -10 68 -34 728 -303 1281 -523 1450 -590
1487 -590 41 0 68 29 68 73 0 45 -31 196 -154 760 -52 239 -122 563 -155 720
-87 413 -181 842 -187 852 -10 16 -51 7 -189 -41z m-130 -505 c52 -22 122 -92
141 -142 33 -86 6 -206 -62 -278 -89 -94 -278 -90 -360 7 -62 73 -84 166 -60
248 32 110 126 179 243 179 35 0 79 -6 98 -14z m-534 -669 c101 -68 115 -194
30 -278 -86 -86 -219 -69 -278 36 -38 67 -27 173 23 217 61 54 165 65 225 25z
m765 -180 c78 -40 134 -128 142 -223 4 -51 0 -71 -20 -115 -32 -70 -70 -115
-122 -142 -33 -17 -58 -22 -126 -22 -74 0 -91 3 -131 27 -75 44 -130 140 -132
233 -1 40 6 67 32 119 52 107 127 149 256 143 39 -2 84 -11 101 -20z"/>
<path d="M4930 5530 c-692 -11 -720 -15 -772 -126 -23 -50 -31 -84 -38 -175
-11 -133 -12 -2825 -1 -3214 7 -250 8 -262 33 -316 19 -43 40 -67 88 -104 l62
-48 1692 9 1691 10 43 22 c27 15 61 47 93 90 l51 67 -6 1660 c-4 913 -10 1726
-15 1807 -11 164 -28 220 -78 256 -53 37 -83 43 -276 52 -268 13 -1966 19
-2567 10z m2639 -197 c41 -6 68 -15 76 -27 8 -10 17 -68 22 -134 11 -154 11
-3122 -1 -3276 -7 -105 -11 -122 -32 -143 l-23 -23 -1640 0 -1639 0 -14 38
c-11 30 -13 346 -13 1717 0 924 4 1710 8 1747 11 89 20 99 98 108 88 11 3078
4 3158 -7z"/>
<path d="M4511 4522 c-19 -9 -44 -30 -55 -45 -21 -28 -21 -39 -28 -975 -3
-521 -3 -950 1 -955 4 -4 77 -6 162 -5 l154 3 3 233 2 232 1239 0 1238 0 6
-107 c4 -58 7 -164 7 -235 l0 -128 156 0 157 0 -7 683 c-7 715 -10 795 -32
839 -38 75 -138 95 -213 44 -23 -16 -47 -39 -53 -49 -6 -12 -13 -145 -18 -334
-3 -172 -9 -315 -11 -317 -2 -2 -561 -6 -1242 -8 l-1237 -3 -1 80 c-6 638 -17
963 -31 996 -27 62 -126 88 -197 51z"/>
<path d="M5000 4321 c-117 -38 -180 -124 -188 -254 -6 -94 12 -148 67 -204 59
-62 121 -86 216 -86 101 0 139 17 206 92 59 66 73 110 67 206 -7 107 -56 182
-151 232 -36 18 -175 28 -217 14z"/>
<path d="M5720 3795 l0 -345 718 2 717 3 3 85 c2 46 -1 163 -7 258 -10 183
-13 194 -70 255 -14 16 -44 38 -66 49 -37 20 -64 21 -575 29 -294 4 -577 8
-627 8 l-93 1 0 -345z"/>
<path d="M5469 4115 c-42 -23 -52 -59 -58 -217 -3 -80 -9 -149 -13 -153 -4 -4
-113 -11 -242 -16 -134 -5 -251 -15 -273 -22 -98 -32 -111 -175 -20 -224 28
-16 68 -18 332 -21 356 -4 395 -1 438 38 l31 28 7 178 c7 209 2 318 -18 357
-30 59 -123 85 -184 52z"/>
<path d="M4670 1216 c-107 -24 -171 -74 -199 -155 -6 -19 -11 -84 -11 -145 0
-173 25 -212 215 -344 159 -110 165 -118 165 -223 0 -82 -14 -109 -57 -109
-36 0 -44 23 -44 134 l-1 106 -135 0 -135 0 4 -122 c3 -104 7 -130 26 -166 26
-48 86 -92 164 -118 74 -24 245 -16 315 15 72 32 118 85 133 153 14 64 8 243
-10 302 -17 55 -96 135 -215 216 -137 92 -155 115 -155 189 0 60 18 91 52 91
27 0 38 -25 44 -104 l7 -76 134 0 134 0 -7 98 c-11 168 -47 213 -198 252 -89
22 -145 24 -226 6z"/>
<path d="M8849 1219 c-165 -17 -244 -108 -260 -301 -20 -243 -6 -627 25 -701
38 -93 140 -157 250 -157 80 0 111 11 157 57 39 37 43 36 54 -15 l7 -32 94 0
94 0 0 305 0 305 -175 0 -175 0 0 -85 0 -85 30 0 30 0 0 -107 c0 -123 -11
-156 -53 -161 -21 -3 -29 2 -37 23 -13 35 -13 715 0 749 12 31 54 36 69 7 6
-10 13 -66 17 -125 l7 -106 143 0 144 0 0 53 c-1 88 -26 206 -54 247 -67 101
-195 146 -367 129z"/>
<path d="M890 640 l0 -570 255 0 255 0 0 115 0 115 -110 0 -110 0 0 125 0 125
95 0 95 0 0 110 0 110 -95 0 -95 0 0 105 0 105 100 0 100 0 0 115 0 115 -245
0 -245 0 0 -570z"/>
<path d="M1502 653 c-40 -307 -72 -564 -72 -570 0 -10 37 -13 149 -13 l149 0
7 100 8 100 57 0 57 0 7 -92 c4 -50 9 -95 12 -100 6 -9 277 -12 286 -3 3 3 -8
92 -23 198 -79 531 -130 875 -135 905 l-6 32 -212 0 -211 0 -73 -557z m322 62
c9 -104 18 -202 21 -217 4 -28 4 -28 -52 -28 l-56 0 6 48 c3 26 16 132 28 236
13 109 25 181 29 170 4 -10 15 -104 24 -209z"/>
<path d="M2170 1095 l0 -115 90 0 90 0 0 -455 0 -455 145 0 145 0 0 455 0 455
85 0 85 0 0 115 0 115 -320 0 -320 0 0 -115z"/>
<path d="M5220 640 l0 -570 235 0 235 0 0 115 0 115 -90 0 -90 0 0 455 0 455
-145 0 -145 0 0 -570z"/>
<path d="M5770 640 l0 -570 255 0 255 0 0 115 0 115 -110 0 -110 0 0 125 0
125 95 0 95 0 0 110 0 110 -95 0 -95 0 0 105 0 105 100 0 100 0 0 115 0 115
-245 0 -245 0 0 -570z"/>
<path d="M6370 640 l0 -570 255 0 255 0 0 115 0 115 -110 0 -110 0 0 125 0
125 95 0 95 0 0 110 0 110 -95 0 -95 0 0 105 0 105 100 0 100 0 0 115 0 115
-245 0 -245 0 0 -570z"/>
<path d="M6970 640 l0 -570 145 0 145 0 0 229 0 228 83 7 c135 10 201 38 234
98 16 29 18 59 18 228 0 189 -1 196 -25 239 -49 87 -144 110 -447 111 l-153 0
0 -570z m358 372 c44 -28 43 -256 -1 -284 -7 -4 -24 -8 -39 -8 l-28 0 0 150 0
150 28 0 c15 0 33 -4 40 -8z"/>
<path d="M9437 993 c-16 -120 -48 -369 -73 -553 -24 -184 -44 -343 -44 -352 0
-16 14 -18 149 -18 l149 0 7 100 8 100 57 0 57 0 9 -97 9 -98 135 -3 c74 -1
140 1 146 5 9 6 9 24 3 63 -5 30 -40 271 -79 535 -39 264 -73 492 -76 508 l-6
27 -211 0 -212 0 -28 -217z m277 -268 c9 -104 19 -205 22 -222 l5 -33 -57 0
-57 0 6 43 c3 23 16 129 28 235 13 106 26 187 30 180 3 -7 14 -98 23 -203z"/>
<path d="M10110 640 l0 -570 130 0 130 0 0 323 c0 177 4 327 8 334 4 7 25
-106 45 -250 21 -144 43 -295 49 -335 l10 -72 84 0 c97 0 98 1 108 100 11 103
87 624 92 629 2 2 4 -161 4 -362 l0 -367 125 0 125 0 0 570 0 570 -190 0
c-111 0 -190 -4 -190 -9 0 -23 -62 -486 -65 -489 -7 -7 -35 163 -70 423 -4 28
-12 56 -17 63 -8 9 -59 12 -194 12 l-184 0 0 -570z"/>
<path d="M11140 640 l0 -570 255 0 255 0 0 115 0 115 -110 0 -110 0 0 125 0
125 95 0 95 0 2 63 c1 34 2 82 3 107 l0 45 -95 5 -95 5 0 100 0 100 100 5 100
5 -1 38 c-1 20 -2 71 -3 112 l-1 75 -245 0 -245 0 0 -570z"/>
</g>
</svg>
