<?xml version="1.0" standalone="no"?>
<!DOCTYPE svg PUBLIC "-//W3C//DTD SVG 20010904//EN"
 "http://www.w3.org/TR/2001/REC-SVG-20010904/DTD/svg10.dtd">
<svg version="1.0" xmlns="http://www.w3.org/2000/svg"
 width="456.000000pt" height="342.000000pt" viewBox="0 0 456.000000 342.000000"
 preserveAspectRatio="xMidYMid meet">
<metadata>
Created by potrace 1.16, written by Peter Selinger 2001-2019
</metadata>
<g transform="translate(0.000000,342.000000) scale(0.100000,-0.100000)"
fill="#000000" stroke="none">
<path d="M482 3039 c-109 -26 -211 -132 -249 -259 -40 -133 -12 -338 60 -431
79 -103 163 -139 325 -140 127 0 198 19 302 80 l70 42 0 179 0 180 -180 0
-180 0 0 -85 0 -84 78 -3 77 -3 1 -38 c1 -36 -2 -40 -47 -63 -63 -32 -158 -34
-207 -4 -44 27 -72 93 -79 183 -8 106 10 181 56 230 33 35 44 41 93 45 65 5
111 -15 136 -59 10 -16 22 -29 28 -29 16 0 207 39 211 44 7 7 -24 78 -54 120
-21 29 -51 55 -85 72 -49 26 -64 28 -183 30 -71 2 -149 -2 -173 -7z"/>
<path d="M1272 2838 c-39 -112 -102 -294 -141 -405 -39 -111 -71 -204 -71
-207 0 -3 54 -6 119 -6 l119 0 17 65 18 65 137 0 137 0 13 -54 c21 -90 21 -90
115 9 46 50 84 95 85 101 0 6 -34 107 -76 225 -42 118 -91 257 -108 309 l-33
95 -130 3 -131 3 -70 -203z m241 -163 c21 -72 37 -134 37 -138 0 -4 -37 -7
-81 -7 -73 0 -81 2 -77 18 53 198 74 270 79 264 3 -4 22 -66 42 -137z"/>
<path d="M1960 2891 c0 -165 8 -271 21 -271 5 0 9 18 9 39 0 22 5 43 11 47 8
5 9 -6 5 -37 -13 -85 -18 -99 -32 -99 -12 0 -14 -30 -14 -175 l0 -175 95 0 95
0 0 184 c0 153 -2 185 -15 190 -8 3 -19 -3 -25 -12 -9 -13 -10 -8 -6 23 3 22
6 49 6 60 0 11 5 27 10 35 9 13 11 13 20 0 11 -17 15 14 10 84 -3 55 17 37 25
-23 6 -44 10 -50 33 -53 26 -3 27 -6 29 -67 2 -36 -1 -68 -7 -71 -6 -3 -4 -26
5 -60 7 -30 25 -108 40 -172 l27 -118 88 0 88 0 41 168 c32 133 39 179 34 223
-6 58 7 99 31 99 7 0 19 26 28 63 l16 62 1 -68 c1 -43 5 -66 11 -62 6 4 10 -8
11 -27 l0 -33 16 33 c9 17 20 32 25 32 5 0 4 -10 -3 -21 -11 -21 -8 -65 6
-101 4 -11 3 -18 -4 -18 -6 0 -13 11 -17 25 -3 14 -10 25 -15 25 -5 0 -9 -11
-9 -25 0 -14 -4 -25 -10 -25 -6 0 -10 -65 -10 -175 l0 -175 95 0 95 0 0 36 c0
30 -10 45 -63 100 -78 79 -74 85 5 7 l58 -57 0 329 0 329 -57 -54 -58 -55 58
60 c45 48 57 67 57 93 l0 32 -155 0 -154 0 -10 -37 c-6 -21 -19 -78 -31 -128
-11 -49 -24 -107 -29 -127 -7 -30 -6 -38 5 -38 8 0 14 -4 14 -10 0 -5 -4 -10
-10 -10 -6 0 -10 -27 -10 -60 0 -38 -4 -60 -11 -60 -8 0 -10 12 -6 35 3 19 2
35 -3 35 -5 0 -12 -20 -15 -44 -6 -38 -10 -43 -24 -36 -9 5 -24 11 -33 14 -10
3 -18 13 -18 23 0 13 3 14 12 5 7 -7 16 -12 20 -12 15 0 8 27 -12 45 -22 20
-26 45 -9 62 10 10 -14 126 -62 306 l-10 37 -154 0 -155 0 0 -149z"/>
<path d="M2970 2630 l0 -410 325 0 325 0 0 89 0 88 -82 5 c-46 3 -138 5 -205
4 l-123 -1 0 83 0 82 185 0 185 0 0 80 0 80 -185 0 -185 0 0 65 0 65 198 2
197 3 0 85 0 85 -317 3 -318 2 0 -410z"/>
<path d="M3750 2630 l0 -410 115 0 115 0 2 163 c3 161 3 162 26 165 44 7 70
-25 147 -178 l75 -150 134 0 135 0 -61 128 c-67 140 -105 195 -151 218 l-31
16 39 13 c92 32 155 142 141 248 -14 102 -70 164 -166 186 -25 6 -152 11 -282
11 l-238 0 0 -410z m429 214 c24 -30 26 -52 10 -88 -15 -33 -56 -46 -140 -46
l-69 0 0 80 0 80 89 0 c85 0 91 -1 110 -26z"/>
<path d="M1745 2300 l-80 -80 112 0 111 0 -25 73 c-13 39 -27 75 -31 79 -4 4
-43 -28 -87 -72z"/>
<path d="M1944 1996 c-151 -37 -252 -160 -274 -332 -27 -212 51 -395 196 -463
25 -12 81 -27 124 -33 202 -30 371 53 431 211 70 184 38 412 -73 523 -93 93
-253 131 -404 94z m183 -197 c69 -34 88 -78 88 -214 0 -123 -16 -171 -68 -209
-34 -25 -120 -29 -161 -6 -47 25 -77 89 -83 179 -9 134 26 224 102 257 43 19
72 17 122 -7z"/>
<path d="M684 1991 c-2 -2 -4 -185 -4 -407 0 -313 3 -403 13 -406 6 -2 51 -2
100 0 l87 3 1 297 1 297 71 -298 71 -298 90 3 90 3 42 180 43 180 -21 22 c-22
23 -12 33 10 11 6 -6 13 -10 16 -7 2 2 15 51 29 109 l25 105 1 -139 1 -140 95
-97 95 -96 0 343 0 343 -48 -3 c-47 -3 -52 -6 -132 -90 -46 -47 -85 -84 -88
-81 -3 3 30 41 73 85 44 44 77 80 75 81 -3 0 -45 1 -95 2 l-90 2 -61 -245
c-59 -238 -61 -244 -72 -205 -5 22 -32 130 -58 240 -26 110 -48 202 -50 204
-5 5 -305 7 -310 2z"/>
<path d="M3415 1990 c-2 -3 -3 -187 -3 -408 l1 -401 311 -3 c171 -2 317 -1
324 1 8 2 12 29 12 92 l0 89 -205 0 -205 0 0 80 0 80 185 0 185 0 0 85 0 85
-185 0 -185 0 0 65 0 65 200 0 201 0 -3 86 -3 86 -313 1 c-173 1 -315 0 -317
-3z"/>
<path d="M2590 1585 c0 -317 3 -405 13 -405 6 0 72 -1 145 -2 l133 -1 205 204
c227 227 215 207 193 333 -21 125 -108 235 -209 265 -23 7 -123 11 -259 11
l-221 0 0 -405z m398 197 c45 -33 62 -87 62 -202 0 -169 -30 -211 -154 -214
l-71 -1 -3 224 -2 224 69 -5 c48 -4 78 -12 99 -26z"/>
<path d="M3092 1376 c-181 -182 -192 -195 -165 -198 90 -10 221 38 273 100 57
70 96 185 88 263 -3 29 -11 22 -196 -165z"/>
<path d="M1350 1332 l0 -152 94 0 94 0 4 55 3 55 -97 98 -98 97 0 -153z"/>
<path d="M1669 944 c-61 -18 -138 -88 -172 -157 -57 -111 -58 -234 -3 -351 23
-50 85 -126 102 -126 10 1 44 31 93 83 l34 36 -28 32 c-38 46 -47 74 -47 152
0 115 62 190 168 203 27 3 60 11 73 17 19 9 25 8 36 -6 16 -22 22 -22 28 1 3
13 6 10 11 -10 10 -35 26 -36 26 -3 0 14 4 25 9 25 6 0 9 -19 8 -41 -1 -24 3
-44 9 -46 7 -2 10 8 8 30 -3 22 1 39 11 47 19 16 45 6 44 -17 0 -11 -3 -13 -6
-5 -2 6 -11 12 -19 12 -10 0 -14 -14 -14 -51 0 -36 4 -49 13 -46 6 2 11 16 10
31 -1 14 2 26 8 26 14 0 11 -70 -4 -76 -9 -3 -13 -29 -12 -87 0 -99 -20 -147
-78 -185 -46 -31 -143 -41 -202 -22 l-37 12 -65 -63 -64 -64 43 -20 c42 -19
65 -20 686 -21 353 -1 642 2 642 5 0 21 -82 83 -126 96 -68 20 -135 80 -164
147 -19 45 -22 64 -17 136 5 87 1 125 -14 116 -5 -3 -9 -16 -9 -30 0 -13 -5
-24 -10 -24 -7 0 -10 27 -9 70 2 70 14 95 21 43 l4 -28 14 28 c17 36 31 35 18
-1 -6 -16 -8 -42 -4 -58 7 -28 8 -28 22 -9 56 78 120 117 206 123 174 13 313
-144 278 -314 -21 -100 -107 -184 -211 -206 l-59 -12 37 -38 c44 -45 75 -49
142 -16 95 46 162 145 182 268 26 164 -68 343 -207 393 -45 16 -104 17 -704
16 -538 0 -663 -3 -701 -15z m481 -119 c0 -8 7 -15 15 -15 8 0 15 7 15 16 0
11 8 14 27 12 23 -2 29 -9 34 -38 3 -19 12 -46 20 -60 14 -25 14 -24 17 23 2
38 -1 52 -15 63 -16 12 -14 13 22 14 25 0 35 -3 27 -9 -9 -5 -14 -33 -15 -78
-1 -67 1 -74 42 -137 24 -36 45 -66 47 -66 2 0 4 36 4 79 l0 80 -27 -2 c-20
-2 -28 3 -31 18 -3 16 -1 18 9 8 33 -32 40 1 9 37 -12 13 -20 33 -18 45 4 25
45 33 54 11 3 -9 12 -16 20 -16 17 0 18 17 2 23 -7 3 4 6 26 6 33 1 37 -1 26
-14 -9 -11 -9 -15 -1 -15 8 0 11 -56 9 -202 l-3 -203 -37 -3 c-21 -2 -41 2
-48 10 -17 20 -160 241 -162 253 -1 5 -5 -51 -8 -125 l-5 -135 -37 -3 -38 -3
0 168 c-1 155 -2 166 -16 148 -15 -19 -16 -17 -9 30 3 28 9 60 12 73 6 24 33
31 33 7z"/>
<path d="M1805 741 c-72 -30 -95 -170 -39 -232 17 -19 18 -19 56 18 21 20 38
32 38 27 0 -6 -13 -23 -30 -39 -16 -15 -27 -32 -24 -37 9 -14 88 -9 112 8 12
8 29 28 37 44 19 38 19 123 0 161 -14 25 -19 28 -36 18 -24 -12 -53 6 -45 28
6 15 -36 17 -69 4z"/>
</g>
</svg>
