<?xml version="1.0" standalone="no"?>
<!DOCTYPE svg PUBLIC "-//W3C//DTD SVG 20010904//EN"
 "http://www.w3.org/TR/2001/REC-SVG-20010904/DTD/svg10.dtd">
<svg version="1.0" xmlns="http://www.w3.org/2000/svg"
 width="1134.000000pt" height="1134.000000pt" viewBox="0 0 1134.000000 1134.000000"
 preserveAspectRatio="xMidYMid meet">
<metadata>
Created by potrace 1.16, written by Peter Selinger 2001-2019
</metadata>
<g transform="translate(0.000000,1134.000000) scale(0.100000,-0.100000)"
fill="#000000" stroke="none">
<path d="M4540 9770 c-276 -38 -533 -165 -730 -359 -146 -145 -251 -307 -314
-486 -19 -54 -29 -71 -48 -76 -48 -13 -87 -40 -110 -76 -22 -37 -23 -44 -23
-279 l0 -240 27 -41 c35 -54 96 -78 170 -70 56 7 89 26 122 71 20 26 21 43 24
275 l3 247 -27 39 c-24 36 -25 42 -14 79 19 66 83 196 135 276 93 142 277 305
435 385 439 222 977 137 1325 -209 125 -125 222 -278 276 -434 l19 -54 -23
-32 c-21 -30 -22 -41 -25 -273 -2 -195 0 -248 12 -277 14 -33 13 -37 -7 -63
-68 -87 -179 -163 -291 -200 -71 -23 -102 -27 -253 -31 -153 -4 -174 -6 -189
-23 -23 -25 -22 -78 0 -95 54 -39 334 -24 489 26 131 42 207 90 321 203 74 73
105 97 125 97 36 0 87 33 111 72 18 31 20 51 20 276 0 267 -3 281 -61 323 -17
12 -45 25 -62 28 -28 6 -34 14 -54 71 -149 424 -511 738 -963 836 -88 19 -327
27 -420 14z"/>
<path d="M7020 9653 c-105 -36 -189 -121 -220 -221 -19 -60 -20 -94 -20 -531
l0 -468 351 -7 c193 -3 421 -11 507 -16 168 -11 449 -37 495 -46 l27 -6 0 216
0 216 -67 0 c-38 0 -259 7 -493 15 -234 8 -453 15 -487 15 l-63 0 0 143 c0
163 7 198 52 244 59 61 139 67 207 16 52 -40 74 -100 79 -224 l4 -107 77 29
c42 15 214 74 384 131 l307 102 0 228 c0 125 -2 228 -4 228 -2 0 -135 -58
-295 -130 -160 -71 -295 -130 -300 -130 -5 0 -12 12 -16 28 -16 68 -96 171
-172 223 -95 66 -249 89 -353 52z"/>
<path d="M4610 9430 c-399 -40 -742 -349 -825 -745 -20 -95 -23 -275 -6 -360
78 -389 361 -679 741 -757 125 -26 327 -21 440 11 66 19 266 109 258 116 -2 2
-43 6 -93 10 -144 11 -209 62 -209 164 1 57 23 102 71 138 36 28 39 28 217 34
196 7 261 20 343 72 36 23 45 35 61 89 50 160 55 390 12 537 -129 450 -549
737 -1010 691z"/>
<path d="M6770 7617 l0 -564 118 -6 c64 -4 335 -18 602 -32 267 -13 527 -27
578 -31 l92 -6 0 571 0 571 -67 0 c-38 0 -105 3 -150 7 l-83 6 0 -341 c0 -187
-4 -343 -9 -346 -4 -3 -61 -3 -125 1 l-116 6 0 287 0 288 -52 6 c-29 3 -99 8
-155 12 l-103 7 0 -297 0 -297 -107 7 c-60 3 -114 7 -120 10 -10 3 -13 81 -13
347 l0 344 -77 7 c-42 3 -107 6 -145 6 l-68 0 0 -563z"/>
<path d="M3812 7320 c-127 -101 -299 -282 -385 -402 -225 -317 -318 -691 -262
-1061 59 -391 348 -790 656 -904 105 -39 219 -38 219 2 0 32 50 114 91 149 24
20 46 36 51 36 16 0 8 56 -16 105 -24 52 -77 105 -223 229 -135 113 -215 233
-264 395 -28 96 -31 246 -5 340 20 73 71 181 86 181 14 0 13 -25 -6 -121 -34
-177 9 -423 98 -565 34 -53 102 -122 208 -210 138 -115 178 -166 200 -256 11
-42 15 -46 48 -52 21 -3 60 -6 89 -6 31 0 191 -34 399 -85 191 -47 350 -85
354 -85 5 0 1 26 -7 57 -40 155 37 298 254 465 114 88 167 150 212 249 50 110
64 208 58 393 -3 89 -8 172 -12 186 l-7 25 22 -25 c12 -14 36 -54 53 -90 31
-63 32 -69 32 -195 -1 -146 -13 -201 -73 -320 -75 -150 -180 -275 -305 -363
-93 -65 -131 -113 -148 -187 -24 -108 22 -217 111 -263 63 -33 179 -28 264 11
231 106 446 326 550 560 122 276 149 661 66 923 -116 364 -348 683 -674 927
l-50 37 -792 0 -793 0 -99 -80z"/>
<path d="M6770 6473 l0 -288 428 -141 427 -141 -155 -37 c-85 -21 -258 -62
-385 -92 -126 -30 -247 -59 -267 -65 l-38 -10 0 -278 0 -279 128 -6 c468 -24
919 -65 1211 -112 l41 -7 0 179 0 179 -472 29 c-260 16 -476 32 -480 35 -11
10 512 138 832 204 l115 23 3 190 2 189 -492 165 -492 165 164 3 c156 3 572
-11 743 -25 l77 -6 0 185 0 185 -377 7 c-392 7 -815 21 -940 32 l-73 6 0 -289z"/>
<path d="M7890 4833 c-140 -52 -271 -100 -290 -108 -19 -8 -123 -46 -230 -85
-194 -71 -405 -149 -532 -197 l-68 -25 0 -268 0 -268 243 -127 c133 -71 265
-140 292 -155 28 -15 109 -58 180 -95 72 -38 234 -123 360 -190 127 -67 249
-132 273 -144 l42 -21 0 237 0 238 -195 89 -195 90 0 267 0 268 53 15 c28 9
115 35 192 59 l140 44 3 236 c1 131 -1 236 -5 236 -5 -1 -123 -44 -263 -96z
m-410 -743 l0 -150 -32 14 c-103 45 -344 159 -351 166 -5 4 15 15 45 24 29 9
109 33 178 55 69 22 133 40 143 40 15 1 17 -13 17 -149z"/>
<path d="M5605 4869 c-27 -10 -74 -18 -102 -19 -29 0 -53 -2 -53 -5 0 -3 10
-25 22 -48 19 -35 23 -58 23 -137 0 -87 -3 -100 -32 -155 -39 -74 -92 -127
-158 -156 -74 -33 -165 -29 -353 15 -84 20 -161 36 -171 36 -10 0 -23 -11 -29
-25 -19 -41 -93 -116 -157 -157 -99 -65 -176 -83 -345 -83 l-145 1 -164 62
c-90 34 -170 62 -178 62 -11 0 -13 -181 -11 -1217 3 -1391 -5 -1269 95 -1371
79 -80 124 -96 263 -97 107 0 119 2 175 29 81 40 147 108 174 179 l21 58 0
1129 0 1130 225 0 225 0 0 -1099 c0 -701 4 -1118 10 -1152 23 -121 100 -217
210 -261 79 -31 222 -31 302 1 75 29 150 98 185 169 l28 57 3 1538 c1 845 -1
1536 -5 1536 -5 -1 -30 -10 -58 -20z"/>
<path d="M3752 4618 l3 -263 205 -68 c224 -75 300 -88 405 -68 74 14 169 58
218 101 52 45 61 64 47 104 -10 33 -12 33 -83 39 -145 13 -327 77 -399 141
-50 45 -94 112 -112 172 l-18 61 -84 7 c-46 3 -103 13 -127 21 -23 8 -45 15
-50 15 -4 0 -6 -118 -5 -262z"/>
<path d="M5116 4835 c-79 -28 -129 -98 -130 -185 -1 -102 71 -185 171 -197
222 -26 312 279 110 373 -59 27 -95 29 -151 9z m142 -44 c107 -56 114 -210 12
-278 -50 -35 -135 -32 -183 5 -158 122 -6 365 171 273z"/>
<path d="M5180 4724 c-12 -36 -23 -40 -65 -24 -22 8 -27 7 -34 -13 -11 -28 -7
-34 29 -42 32 -7 36 -18 20 -59 -8 -21 -6 -27 10 -36 29 -16 36 -12 47 23 9
33 17 35 64 22 22 -5 27 -3 32 16 8 30 3 36 -34 44 -27 6 -30 10 -24 33 12 46
11 54 -12 63 -19 7 -23 3 -33 -27z"/>
<path d="M7355 2858 c-4 -139 -5 -271 -3 -293 l3 -40 100 -12 c55 -6 120 -12
145 -12 l45 -1 -3 97 -3 96 112 -7 c62 -4 115 -8 116 -10 12 -12 24 -155 21
-240 -7 -166 -50 -235 -188 -300 -60 -29 -73 -31 -175 -31 -103 0 -114 2 -175
31 -304 147 -389 429 -255 846 14 42 25 80 25 83 0 7 -269 6 -296 -1 -25 -6
-25 -9 -55 -194 -30 -187 -36 -412 -15 -539 20 -115 40 -179 84 -267 86 -170
261 -309 475 -376 61 -19 94 -23 217 -23 133 0 152 3 223 28 219 77 342 225
404 488 26 107 27 129 28 349 0 200 -4 256 -24 376 -13 78 -26 146 -30 153 -5
7 -127 18 -362 31 -195 11 -366 20 -380 20 l-27 0 -7 -252z"/>
</g>
</svg>
